<svg viewBox="0 0 224 280" height="280" fill="none" aria-hidden="true" class="absolute inset-0 h-full w-full overflow-visible"><path fill="#fff" fill-opacity="0.05" d="M8 .25a8 8 0 0 0-8 8v91.704c0 2.258.954 4.411 2.628 5.927l10.744 9.738A7.998 7.998 0 0 1 16 121.546v36.408a7.998 7.998 0 0 1-2.628 5.927l-10.744 9.738A7.998 7.998 0 0 0 0 179.546v92.204a8 8 0 0 0 8 8h308a8 8 0 0 0 8-8V8.25a8 8 0 0 0-8-8H8Z"></path><path stroke="#fff" stroke-opacity="0.05" d="M.5 99.954V8.25A7.5 7.5 0 0 1 8 .75h308a7.5 7.5 0 0 1 7.5 7.5v263.5a7.5 7.5 0 0 1-7.5 7.5H8a7.5 7.5 0 0 1-7.5-7.5v-92.204a7.5 7.5 0 0 1 2.464-5.557l10.744-9.737a8.5 8.5 0 0 0 2.792-6.298v-36.408a8.5 8.5 0 0 0-2.792-6.298l-10.744-9.737A7.5 7.5 0 0 1 .5 99.954Z"></path></svg>